<svg fill="none" height="18" viewBox="0 0 18 18" width="18" xmlns="http://www.w3.org/2000/svg" xmlns:xlink="http://www.w3.org/1999/xlink"><clipPath id="a"><path d="m0 0h18v18h-18z"/></clipPath><g clip-path="url(#a)"><path d="m10.0575 9.00032 3.225-3.2175v-.0075c.2925-.3.2925-.7725-.0075-1.065-.3-.3-.7725-.3-1.065 0l-3.21749 3.225-3.2175-3.225c-.3-.3-.7725-.3-1.065-.0075-.3.2925-.3.765-.0075 1.065l3.225 3.2175-3.225 3.21748v-.0075c-.3.285-.3.765-.0075 1.0575l-.0075-.0075c.285.2925.765.2925 1.0575 0 0-.0075 0-.0075 0-.0075l3.2175-3.225 3.21749 3.225-.0075-.0075c.285.2925.765.2925 1.0575 0 0-.0075 0-.0075 0-.0075v-.0075c.2925-.2925.2925-.7725 0-1.065-.0075-.0075-.0075-.0075-.0075-.0075z" fill="#545748"/></g></svg>