<svg fill="none" height="44" viewBox="0 0 124 44" width="124" xmlns="http://www.w3.org/2000/svg"><g fill="#545748"><path d="m3.91504 33.3652c1.45963 0 2.80176-.0618 4.02637-.1855s2.29459-.266 3.20999-.4268c1.0638-.1731 2.0348-.3772 2.9131-.6123l-.5381 3.0059c-.1485-.0124-.3711-.0248-.668-.0371-.2969-.0124-.6309-.0248-1.002-.0371-.3587-.0124-.7421-.0248-1.1503-.0371-.3959 0-.77316-.0062-1.13188-.0186-.35873 0-.68034-.0062-.96484-.0186-.27214 0-.47006 0-.59376 0h-8.01562v-.0742c.0742188-.2597.142253-.5814.204102-.9648.074218-.3835.136067-.8597.185546-1.4287.04948-.569.086589-1.2432.111329-2.0225.024739-.7917.037109-1.7132.037109-2.7646v-12.0791c0-1.0515-.01237-1.9668-.037109-2.7461-.02474-.7917-.061849-1.472-.111329-2.041-.049479-.5814-.111328-1.06385-.185546-1.44731-.061849-.38347-.1298832-.70508-.204102-.96485v-.07422h4.45312v.07422c-.07421.25977-.14843.58138-.22265.96485-.06185.38346-.11751.86591-.16699 1.44731-.03711.569-.07422 1.2493-.11133 2.041-.02474.7793-.03711 1.6946-.03711 2.7461z"/><path d="m28.8533 7.94531c2.0657 0 3.9707.34017 5.7148 1.02051 1.7565.66797 3.2718 1.61428 4.5459 2.83888 1.2741 1.2122 2.2699 2.6719 2.9873 4.3789.7175 1.707 1.0762 3.5934 1.0762 5.6592 0 1.1751-.1361 2.3317-.4082 3.4697s-.6742 2.2142-1.2061 3.2285c-.5195 1.0143-1.1627 1.9544-1.9296 2.8203-.767.8535-1.6452 1.5957-2.6348 2.2266-.9772.6185-2.0596 1.1009-3.2471 1.4473-1.1875.3587-2.4678.538-3.8408.538-2.0658 0-3.9769-.3278-5.7334-.9834-1.7441-.6679-3.2533-1.608-4.5273-2.8203-1.2741-1.2122-2.2699-2.6657-2.9873-4.3603-.7175-1.7071-1.0762-3.5996-1.0762-5.6778 0-1.1751.136-2.3317.4082-3.4697.2721-1.138.668-2.2204 1.1875-3.2471.5319-1.0266 1.1751-1.9667 1.9297-2.8203.7669-.8658 1.639-1.6142 2.6162-2.24508.9896-.63086 2.0781-1.11947 3.2656-1.46582 1.1999-.35873 2.4863-.53809 3.8594-.53809zm1.0576 25.95799c1.373 0 2.6286-.2474 3.7666-.7422s2.1152-1.2122 2.9316-2.1523c.8288-.9401 1.472-2.0843 1.9297-3.4326.4577-1.3607.6865-2.9007.6865-4.6201 0-1.905-.2226-3.6677-.6679-5.2881-.433-1.6328-1.0824-3.043-1.9483-4.2305-.8658-1.1999-1.9482-2.1338-3.247-2.8018-1.2865-.6803-2.7894-1.02047-4.5088-1.02047-1.3731 0-2.6286.2474-3.7666.74217-1.138.4824-2.1214 1.1875-2.9502 2.1153-.8164.9277-1.4535 2.0657-1.9111 3.414-.4577 1.3483-.6866 2.8822-.6866 4.6016 0 1.8926.2165 3.6614.6494 5.3066.433 1.6328 1.0824 3.0492 1.9483 4.249.8659 1.1999 1.9482 2.1462 3.2471 2.8389 1.2988.6804 2.8079 1.0205 4.5273 1.0205z"/><path d="m43.5456 7.94531c2.0658 0 3.9707.34017 5.7149 1.02051 1.7565.66797 3.2718 1.61428 4.5459 2.83888 1.2741 1.2122 2.2698 2.6719 2.9873 4.3789.7174 1.707 1.0761 3.5934 1.0761 5.6592 0 1.1751-.136 2.3317-.4082 3.4697-.2721 1.138-.6741 2.2142-1.206 3.2285-.5195 1.0143-1.1628 1.9544-1.9297 2.8203-.7669.8535-1.6452 1.5957-2.6348 2.2266-.9772.6185-2.0595 1.1009-3.247 1.4473-1.1875.3587-2.4678.538-3.8409.538-2.0657 0-3.9768-.3278-5.7334-.9834-1.7441-.6679-3.2532-1.608-4.5273-2.8203-1.2741-1.2122-2.2699-2.6657-2.9873-4.3603-.7175-1.7071-1.0762-3.5996-1.0762-5.6778 0-1.1751.1361-2.3317.4082-3.4697.2722-1.138.668-2.2204 1.1875-3.2471.5319-1.0266 1.1752-1.9667 1.9297-2.8203.7669-.8658 1.639-1.6142 2.6162-2.24508.9896-.63086 2.0781-1.11947 3.2656-1.46582 1.1999-.35873 2.4864-.53809 3.8594-.53809zm1.0576 25.95799c1.3731 0 2.6286-.2474 3.7666-.7422 1.1381-.4948 2.1153-1.2122 2.9317-2.1523.8288-.9401 1.472-2.0843 1.9297-3.4326.4577-1.3607.6865-2.9007.6865-4.6201 0-1.905-.2227-3.6677-.668-5.2881-.4329-1.6328-1.0823-3.043-1.9482-4.2305-.8659-1.1999-1.9483-2.1338-3.2471-2.8018-1.2864-.6803-2.7894-1.02047-4.5088-1.02047-1.373 0-2.6286.2474-3.7666.74217-1.138.4824-2.1214 1.1875-2.9502 2.1153-.8164.9277-1.4534 2.0657-1.9111 3.414s-.6865 2.8822-.6865 4.6016c0 1.8926.2164 3.6614.6494 5.3066.4329 1.6328 1.0823 3.0492 1.9482 4.249.8659 1.1999 1.9483 2.1462 3.2471 2.8389 1.2988.6804 2.8079 1.0205 4.5273 1.0205z"/><path d="m63.7331 8.39062v.07422c-.0247.06185-.0433.15463-.0556.27832-.0124.1237-.0186.23503-.0186.33399 0 .38346.0495.81022.1484 1.28025.1114.4577.3155 1.0329.6123 1.7256l8.2198 18.5361 7.9414-18.3877c.1855-.4576.3834-.9586.5937-1.5029s.3155-1.09471.3155-1.65135c0-.14844-.0124-.27214-.0371-.3711-.0248-.11132-.0495-.19173-.0743-.24121v-.07422h3.8037v.07422c-.235.23503-.5195.6556-.8535 1.26172-.334.60614-.6989 1.35454-1.0947 2.24514l-10.6318 23.6015h-1.4844l-10.0752-22.6923c-.235-.5319-.4824-1.0453-.7422-1.5401-.2474-.4948-.4824-.9401-.7051-1.3359-.2226-.40822-.4205-.74839-.5937-1.02052-.1732-.27214-.2907-.44532-.3526-.51954v-.07422z"/><path d="m87.2419 34.9238c.0742-.2597.1423-.5814.2041-.9648.0619-.3835.1175-.8597.167-1.4287s.0866-1.2432.1113-2.0225c.0248-.7917.0371-1.7132.0371-2.7646v-12.0791c0-1.0515-.0123-1.9668-.0371-2.7461-.0247-.7917-.0618-1.472-.1113-2.041-.0495-.5814-.1051-1.06385-.167-1.44731-.0618-.38347-.1299-.70508-.2041-.96485v-.07422h4.4346v.07422c-.0742.25977-.1485.58138-.2227.96485-.0618.38346-.1175.86591-.167 1.44731-.0371.569-.0742 1.2493-.1113 2.041-.0247.7793-.0371 1.6946-.0371 2.7461v12.0791c0 1.0514.0124 1.9729.0371 2.7646.0371.7793.0742 1.4535.1113 2.0225.0495.569.1052 1.0452.167 1.4287.0742.3834.1485.7051.2227.9648v.0742h-4.4346z"/><path d="m109.303 7.94531c2.066 0 3.971.34017 5.715 1.02051 1.757.66797 3.272 1.61428 4.546 2.83888 1.274 1.2122 2.27 2.6719 2.987 4.3789.718 1.707 1.077 3.5934 1.077 5.6592 0 1.1751-.136 2.3317-.409 3.4697-.272 1.138-.674 2.2142-1.206 3.2285-.519 1.0143-1.162 1.9544-1.929 2.8203-.767.8535-1.645 1.5957-2.635 2.2266-.977.6185-2.06 1.1009-3.247 1.4473-1.188.3587-2.468.538-3.841.538-2.066 0-3.977-.3278-5.733-.9834-1.744-.6679-3.254-1.608-4.528-2.8203-1.2738-1.2122-2.2695-2.6657-2.987-4.3603-.7174-1.7071-1.0762-3.5996-1.0762-5.6778 0-1.1751.1361-2.3317.4082-3.4697.2722-1.138.668-2.2204 1.1875-3.2471.5319-1.0266 1.1752-1.9667 1.9297-2.8203.7668-.8658 1.6388-1.6142 2.6158-2.24508.99-.63086 2.079-1.11947 3.266-1.46582 1.2-.35873 2.486-.53809 3.859-.53809zm1.058 25.95799c1.373 0 2.629-.2474 3.767-.7422s2.115-1.2122 2.931-2.1523c.829-.9401 1.472-2.0843 1.93-3.4326.458-1.3607.687-2.9007.687-4.6201 0-1.905-.223-3.6677-.668-5.2881-.433-1.6328-1.083-3.043-1.949-4.2305-.866-1.1999-1.948-2.1338-3.247-2.8018-1.286-.6803-2.789-1.02047-4.509-1.02047-1.373 0-2.628.2474-3.766.74217-1.138.4824-2.122 1.1875-2.95 2.1153-.817.9277-1.454 2.0657-1.911 3.414-.458 1.3483-.687 2.8822-.687 4.6016 0 1.8926.216 3.6614.649 5.3066.433 1.6328 1.083 3.0492 1.949 4.249.866 1.1999 1.948 2.1462 3.247 2.8389 1.299.6804 2.808 1.0205 4.527 1.0205z"/><path d="m28.7578 0 4.2798 2.07295-1.6348 3.3541h-5.29l-1.6347-3.3541z"/></g></svg>