<svg fill="none" height="18" viewBox="0 0 18 18" width="18" xmlns="http://www.w3.org/2000/svg" xmlns:xlink="http://www.w3.org/1999/xlink"><clipPath id="a"><path d="m0 0h18v18h-18z"/></clipPath><g clip-path="url(#a)" fill="#545748"><path d="m15.0375 8.25h-12.075c-.3935 0-.7125.319-.7125.7125v.075c0 .3935.319.7125.7125.7125h12.075c.3935 0 .7125-.319.7125-.7125v-.075c0-.3935-.319-.7125-.7125-.7125z"/><path d="m15.0375 12h-12.075c-.3935 0-.7125.319-.7125.7125v.075c0 .3935.319.7125.7125.7125h12.075c.3935 0 .7125-.319.7125-.7125v-.075c0-.3935-.319-.7125-.7125-.7125z"/><path d="m15.0375 4.5h-12.075c-.3935 0-.7125.319-.7125.7125v.075c0 .3935.319.7125.7125.7125h12.075c.3935 0 .7125-.319.7125-.7125v-.075c0-.3935-.319-.7125-.7125-.7125z"/></g></svg>