<svg fill="none" height="41" width="144" xmlns="http://www.w3.org/2000/svg"><path d="m29.326 20.022a5.586 5.586 0 0 0 -.453-2.718l-1.585-3.925c-.302-.906-.906-1.66-1.585-2.264-.604-.529-1.434-.906-2.264-1.057-.906-.151-1.737 0-2.567.377l-4.755 1.963-4.831-1.812c-.83-.302-1.737-.453-2.567-.302s-1.585.529-2.264 1.057c-.68.604-1.208 1.434-1.51 2.265l-1.51 3.925c-.377.83-.528 1.811-.377 2.717v.076c-.076.905.075 1.887.453 2.717l1.585 3.925c.302.906.906 1.66 1.585 2.265.604.528 1.434.906 2.265 1.057.226 0 .453.075.679.075.68 0 1.283-.15 1.887-.377l4.755-1.963 4.832 1.812c.83.302 1.736.453 2.566.302s1.585-.529 2.265-1.057c.679-.604 1.207-1.434 1.51-2.265l1.509-3.925a7.337 7.337 0 0 0 .377-2.868zm-2.868 3.774-.83 2.265a4.019 4.019 0 0 1 -1.661 2.038c-.755.377-1.585.377-2.34.075l-3.02-1.132 7.7-3.095c.075-.076.15-.076.15-.151zm-20.38.226 7.774 2.944-3.02 1.208c-.754.302-1.584.302-2.34-.075-.754-.453-1.358-1.133-1.66-1.963l-.906-2.19c.076.076.076.076.151.076zm4.604-11.85 3.02 1.132-7.625 3.094c-.075 0-.15.076-.15.076l.83-2.264c.226-.83.83-1.51 1.585-1.963.755-.377 1.585-.377 2.34-.076zm10.794-.076c.755-.302 1.585-.302 2.34.075.83.453 1.434 1.133 1.736 1.963l.906 2.189c-.076 0-.151-.076-.151-.076l-7.775-2.943zm5.888 8.001c0 .227-.076.378-.151.529-.302.754-.83 1.358-1.66 1.66l-9.36 3.774-9.436-3.623c-.755-.226-1.36-.83-1.661-1.585-.076-.15-.076-.302-.151-.528 0-.227.075-.378.15-.604.303-.755.831-1.359 1.662-1.66l9.36-3.775 9.435 3.623c.755.302 1.359.83 1.66 1.66.076.076.152.303.152.53zm112.77.456c-.679-.604-1.585-.982-2.49-1.133l-3.548-.603c-.453-.076-.906-.227-1.208-.529a.981.981 0 0 1 -.377-.981v-1.057c0-.453.226-.83.528-1.132.453-.302 1.057-.453 1.661-.453h2.264c.529 0 1.057.15 1.434.528.378.378.604.982.529 1.51v.302h1.962v-.226c.076-1.057-.377-2.114-1.132-2.869a3.692 3.692 0 0 0 -2.868-1.057h-2.189c-1.057-.075-2.114.302-3.02.906a3.184 3.184 0 0 0 -1.207 2.491v1.057c0 .83.301 1.66.905 2.189.68.604 1.51.981 2.416 1.132l3.548.604c.452.076.905.227 1.283.528.302.227.453.604.453.906v1.284c0 .452-.227.905-.604 1.132-.529.302-1.132.528-1.736.453h-2.189c-.68 0-1.284-.227-1.661-.68-.453-.453-.679-1.132-.679-1.811v-.302h-1.963v.226c0 .755.151 1.585.528 2.265a3.65 3.65 0 0 0 1.51 1.51c.68.377 1.434.528 2.189.528h2.491c.981 0 2.038-.302 2.793-.906a3.185 3.185 0 0 0 1.208-2.491v-1.283c.151-.68-.227-1.434-.831-2.038zm-25.812 1.129c-.227-.301-.453-.604-.755-.754a3.942 3.942 0 0 0 1.434-1.057 3.22 3.22 0 0 0 .755-2.038v-1.434c0-.906-.302-1.812-.981-2.491-.755-.604-1.661-.982-2.567-.906h-6.944v14.266h1.962v-5.812h3.699c.453 0 .981.15 1.283.528.453.378.755.906.906 1.434l1.132 3.85h2.038l-1.207-4c-.151-.529-.378-1.133-.755-1.586zm-.529-5.359v1.51c0 .528-.151.981-.528 1.283-.453.377-.981.528-1.585.528h-4.454v-4.754h4.907c.453 0 .906.15 1.207.377.302.227.453.604.453 1.057zm-64.312-2.34a3.45 3.45 0 0 0 -2.642-.905h-6.944v14.266h1.962v-5.208h4.68c1.057.075 2.038-.302 2.793-.982a3.221 3.221 0 0 0 1.057-2.641v-2.039a2.745 2.745 0 0 0 -.906-2.49zm-.981 4.454c0 .528-.151.981-.529 1.359-.377.377-.905.528-1.434.528h-4.68v-5.51h4.907c.453 0 .905.15 1.283.453.302.302.453.68.453 1.132zm49.365 3.319h-.076l-2.944-7.775c-.302-.755-.83-.981-1.207-.981h-.83l-5.511 14.267h2.038l1.434-3.775h5.661l1.435 3.774h2.038l-2.038-5.283zm-2.038 0h-4.379l2.19-5.812zm28.231-8.756h-1.962v14.267h1.962zm-58.878.53c-.754-.452-1.66-.678-2.566-.678h-2.038c-.905 0-1.811.226-2.566.679s-1.359 1.057-1.736 1.811c-.453.83-.604 1.812-.604 2.718v4.227c0 .906.226 1.887.604 2.718.377.754.981 1.434 1.736 1.811.755.453 1.585.68 2.415.68h2.19c.905 0 1.736-.227 2.566-.68.755-.453 1.359-1.057 1.736-1.811.453-.83.604-1.737.604-2.718v-4.227c0-.906-.227-1.887-.604-2.717-.377-.755-.981-1.36-1.736-1.812zm.378 8.757c.076.906-.226 1.736-.83 2.416-.528.603-1.283.905-2.113.905h-2.039c-.83.076-1.585-.302-2.113-.905-.604-.68-.83-1.586-.83-2.491v-4.227c-.076-.906.226-1.737.83-2.416.528-.528 1.283-.906 2.038-.906h2.113c.83 0 1.586.302 2.114.906.604.68.83 1.585.83 2.491zm10.116-9.287h-1.964v12.681c0 .453.15.83.453 1.133.302.226.68.377 1.057.377h7.85v-1.812h-7.473v-12.379h.076z" fill="#545748"/></svg>