<svg width="144" height="41" fill="none" xmlns="http://www.w3.org/2000/svg">
  <path d="M46 30.505c.066-.24.118-.485.156-.732.047-.291.09-.653.128-1.085.038-.432.066-.946.085-1.543.019-.596.028-1.293.028-2.091v-9.17c0-.798-.01-1.495-.028-2.091a29.059 29.059 0 00-.085-1.55c-.038-.436-.08-.8-.128-1.091a6.445 6.445 0 00-.156-.733v-.056h3.397v.056c-.066.242-.12.486-.162.733-.054.29-.096.655-.128 1.091-.031.437-.06.953-.085 1.55a53.284 53.284 0 00-.035 2.091v9.17c0 .798.012 1.495.035 2.091.024.597.052 1.11.085 1.543.034.432.076.794.128 1.085.042.247.096.491.162.732v.056H46v-.056zm13.506-5.449c0 .798.012 1.496.036 2.092.024.596.052 1.11.085 1.542.033.432.076.794.128 1.085.041.247.095.491.161.733v.053h-3.412v-.056c.067-.241.12-.485.162-.732.054-.291.097-.653.128-1.085.031-.432.06-.944.085-1.535.023-.592.035-1.291.035-2.1v-9.169c0-.798-.012-1.495-.035-2.091a43.454 43.454 0 00-.085-1.543 11.682 11.682 0 00-.128-1.091 7.302 7.302 0 00-.162-.74v-.056l.597.056c.18.019.382.03.604.035.223.005.453.008.69.008a11.292 11.292 0 001.5-.134c.799-.1 1.604-.144 2.409-.134a8.332 8.332 0 012.523.366 5.924 5.924 0 012.012 1.07 4.884 4.884 0 011.33 1.725c.327.729.49 1.52.476 2.318a6.445 6.445 0 01-.262 1.88 5.786 5.786 0 01-.74 1.571 5.74 5.74 0 01-1.144 1.247 6.62 6.62 0 01-1.493.908l4.99 6.944c.247.347.476.648.69.902.19.23.395.448.611.654.174.167.362.318.562.451.172.114.359.207.555.275v.056h-4.11a2.491 2.491 0 00-.276-.711 7.67 7.67 0 00-.548-.882l-5.033-7.028c-.216.019-.434.035-.654.05a11.625 11.625 0 01-1.471-.007 8.256 8.256 0 01-.818-.1l.002 3.173zm0-4.268c.258.057.52.097.782.12.266.023.522.035.768.035a5.722 5.722 0 001.948-.32 3.833 3.833 0 001.499-.962 4.44 4.44 0 00.96-1.613c.24-.73.356-1.493.341-2.26a7.067 7.067 0 00-.242-1.917 4.088 4.088 0 00-.718-1.459c-.32-.4-.731-.72-1.2-.93a4.038 4.038 0 00-1.693-.33 9.802 9.802 0 00-1.564.098 5.03 5.03 0 00-.881.212v9.326zm17.24 9.717c.065-.24.118-.485.155-.732.048-.291.09-.653.128-1.085.038-.432.066-.946.085-1.543.019-.596.028-1.293.028-2.091v-9.17c0-.798-.01-1.495-.028-2.091a29.684 29.684 0 00-.084-1.55c-.038-.436-.08-.8-.128-1.091a6.424 6.424 0 00-.156-.733v-.056h3.397v.056c-.066.242-.12.486-.162.733-.054.29-.096.655-.128 1.091-.031.437-.06.953-.085 1.55a53.284 53.284 0 00-.035 2.091v9.17c0 .798.012 1.495.035 2.091.024.597.052 1.11.085 1.543.034.432.076.794.128 1.085.042.247.096.491.162.732v.056h-3.397v-.056zM95.75 13.573h-.313a3.985 3.985 0 00-.362-.732 3.386 3.386 0 00-.654-.768 3.477 3.477 0 00-.981-.598 3.521 3.521 0 00-1.358-.24 3.377 3.377 0 00-1.237.21 2.48 2.48 0 00-.902.592 2.5 2.5 0 00-.548.902 3.603 3.603 0 00.39 3.092c.417.655.9 1.266 1.444 1.823a34.325 34.325 0 001.876 1.803c.66.589 1.287 1.214 1.876 1.873.56.621 1.043 1.304 1.443 2.036.382.703.58 1.49.576 2.288a5.584 5.584 0 01-.324 1.839 4.735 4.735 0 01-.988 1.654 4.982 4.982 0 01-1.715 1.194 6.24 6.24 0 01-2.503.457 7.782 7.782 0 01-1.542-.148 9.977 9.977 0 01-1.35-.369 8.8 8.8 0 01-1.912-.937l.324-3.113h.355a4.472 4.472 0 001.386 2.317 4.18 4.18 0 001.187.732c.466.19.964.284 1.467.28.444.007.885-.067 1.301-.218.367-.135.703-.34.988-.606.275-.259.491-.573.633-.922.15-.372.224-.77.219-1.171a4.077 4.077 0 00-.324-1.642 6.451 6.451 0 00-.86-1.43 11.967 11.967 0 00-1.208-1.31 94.05 94.05 0 00-1.386-1.274 36.55 36.55 0 01-1.386-1.318c-.445-.444-.85-.927-1.208-1.442a7.383 7.383 0 01-.862-1.648 5.525 5.525 0 01-.324-1.937 4.542 4.542 0 01.433-2.004c.278-.58.67-1.1 1.152-1.528a5.145 5.145 0 011.628-.972A5.347 5.347 0 0192.058 10c.438-.003.876.035 1.307.113a8.677 8.677 0 011.905.578l.583.253-.103 2.63z" fill="#545748"/>
</svg>
