<svg width="144" height="41" fill="none" xmlns="http://www.w3.org/2000/svg">
  <path d="M56.256 20.312a7.7 7.7 0 01.632-3.15 7.132 7.132 0 011.774-2.454 8.055 8.055 0 012.736-1.588 10.59 10.59 0 013.545-.561 10.602 10.602 0 013.537.564 8.048 8.048 0 012.745 1.588A7.129 7.129 0 0173 17.165c.43.994.645 2.068.632 3.15A7.826 7.826 0 0173 23.488a7.247 7.247 0 01-1.773 2.482 8.104 8.104 0 01-2.746 1.615 10.362 10.362 0 01-3.537.578 10.347 10.347 0 01-3.541-.58 8.116 8.116 0 01-2.736-1.618 7.248 7.248 0 01-1.778-2.48 7.826 7.826 0 01-.632-3.173zm3.08 0a5.12 5.12 0 00.424 2.119 4.666 4.666 0 001.175 1.607 5.3 5.3 0 001.779 1.026 6.697 6.697 0 002.23.359 6.692 6.692 0 002.229-.36 5.243 5.243 0 001.773-1.025 4.75 4.75 0 001.176-1.607c.293-.668.439-1.39.428-2.119a5.005 5.005 0 00-.428-2.108 4.576 4.576 0 00-1.176-1.576 5.167 5.167 0 00-1.773-.986 7.042 7.042 0 00-2.23-.344 7.04 7.04 0 00-2.23.34 5.222 5.222 0 00-1.778.986c-.503.432-.905.97-1.175 1.576a5.057 5.057 0 00-.423 2.112zm17.354-3.828h2.877v1.652c.63-.47 1.304-.88 2.011-1.225a11.318 11.318 0 012.108-.787l.846 2.634a9.13 9.13 0 00-2.92.746 5.24 5.24 0 00-2.045 1.627v6.818H76.69V16.484zm11.495-1.565a2.314 2.314 0 01-.773-.12 1.816 1.816 0 01-.588-.332 1.462 1.462 0 01-.374-.486 1.357 1.357 0 01-.131-.588 1.38 1.38 0 01.505-1.079c.175-.143.374-.253.588-.325.249-.084.51-.125.772-.122.266-.004.53.037.782.121.214.073.414.183.588.326a1.377 1.377 0 01.505 1.079c.001.203-.044.404-.13.588a1.461 1.461 0 01-.375.486 1.815 1.815 0 01-.588.331 2.343 2.343 0 01-.781.121zm-1.436 1.565h2.877V27.95h-2.877V16.484zm5.869 5.733a5.428 5.428 0 01.497-2.313 5.6 5.6 0 011.428-1.885 6.88 6.88 0 012.244-1.273 8.817 8.817 0 012.959-.466 8.82 8.82 0 012.958.467 6.89 6.89 0 012.245 1.273 5.612 5.612 0 011.43 1.887 5.41 5.41 0 01.497 2.312 5.413 5.413 0 01-.497 2.313 5.606 5.606 0 01-1.429 1.884 6.882 6.882 0 01-2.244 1.271 8.82 8.82 0 01-2.959.467 8.819 8.819 0 01-2.958-.466 6.882 6.882 0 01-2.246-1.274 5.6 5.6 0 01-1.428-1.885 5.429 5.429 0 01-.5-2.312h.003zm3.022 0a3.156 3.156 0 001.084 2.395c.38.329.818.582 1.292.746a5.056 5.056 0 001.735.277 5.05 5.05 0 001.734-.277 3.934 3.934 0 001.293-.746 3.163 3.163 0 001.079-2.395 3.184 3.184 0 00-1.083-2.408 3.945 3.945 0 00-1.293-.746 5.056 5.056 0 00-1.734-.277 5.061 5.061 0 00-1.735.277 3.943 3.943 0 00-1.293.746 3.187 3.187 0 00-1.081 2.408h.002zm14.147-5.733h2.877v.972a8.83 8.83 0 012.191-.912 8.365 8.365 0 012.045-.262 7.433 7.433 0 012.43.384c.718.24 1.377.629 1.933 1.141.56.529.996 1.174 1.278 1.89.32.834.476 1.721.458 2.614v5.638h-2.867V22.78a4.955 4.955 0 00-.267-1.685 3.398 3.398 0 00-.767-1.254 3.299 3.299 0 00-1.215-.777 4.533 4.533 0 00-1.599-.267 4.914 4.914 0 00-.956.097c-.328.065-.65.158-.962.277a5.48 5.48 0 00-.912.447 4.808 4.808 0 00-.797.607v7.724h-2.873l.003-11.465zM35.388 34.776a14.388 14.388 0 110-28.775 14.388 14.388 0 010 28.775zm0-2.878a11.51 11.51 0 100-23.02 11.51 11.51 0 000 23.02zm2.878-14.388h-4.317a1.44 1.44 0 010-2.878h5.755a1.438 1.438 0 011.439 1.439v5.755a1.44 1.44 0 01-2.878 0V17.51zm-4.317 4.316h-4.316a1.439 1.439 0 110-2.878h5.755a1.438 1.438 0 011.438 1.439v5.755a1.439 1.439 0 01-2.877 0v-4.316z" fill="#545748"/>
</svg>
