<svg width="144" height="41" fill="none" xmlns="http://www.w3.org/2000/svg">
  <path d="M14 29.09v-16.8h3.648L23 22.944l5.28-10.656h3.648v16.8h-3.072V17.497l-4.68 9.192h-2.424l-4.684-9.192V29.09H14zm23.592 0v-16.8h3.076v16.8h-3.076zm8.736 0v-16.8h3.648l5.352 10.655 5.28-10.656h3.648v16.8h-3.072V17.497l-4.68 9.192H54.08l-4.68-9.192V29.09h-3.072zm31.464.287a8.552 8.552 0 01-4.4-1.1 7.815 7.815 0 01-2.952-3.06 9.289 9.289 0 01-1.072-4.528 9.29 9.29 0 011.068-4.524 7.815 7.815 0 012.952-3.06 8.552 8.552 0 014.4-1.1h7.572a8.357 8.357 0 014.207 1.1 7.707 7.707 0 012.952 3.06 9.377 9.377 0 011.06 4.524 9.376 9.376 0 01-1.056 4.524 7.707 7.707 0 01-2.955 3.06 8.745 8.745 0 01-4.2 1.1l-7.576.004zm0-2.76h7.6a4.75 4.75 0 003.615-1.58 6.25 6.25 0 001.428-4.348 6.25 6.25 0 00-1.428-4.344 5 5 0 00-3.67-1.582h-7.544a4.938 4.938 0 00-3.84 1.584 6.217 6.217 0 00-1.441 4.342 6.217 6.217 0 001.44 4.344 4.935 4.935 0 003.84 1.584zm26.635 2.76a7.89 7.89 0 01-3.264-.636 5.244 5.244 0 01-2.232-1.824 5.117 5.117 0 01-.84-2.892h3.24c.016.746.321 1.456.852 1.98a2.998 2.998 0 002.22.8 2.981 2.981 0 001.944-.588 1.923 1.923 0 00.721-1.568 2.055 2.055 0 00-.636-1.608 4.794 4.794 0 00-1.692-.936l-2.256-.768a7.425 7.425 0 01-2.965-1.728 3.87 3.87 0 01-1.02-2.808 4.29 4.29 0 01.708-2.556 4.818 4.818 0 012-1.656 6.909 6.909 0 012.928-.588 6.93 6.93 0 012.964.6 4.859 4.859 0 012.016 1.68c.501.764.772 1.655.78 2.568h-3.284a2.291 2.291 0 00-.684-1.572 2.433 2.433 0 00-1.836-.684 2.621 2.621 0 00-1.692.496 1.758 1.758 0 00-.684 1.5 1.735 1.735 0 00.528 1.332c.421.369.91.65 1.44.828.608.224 1.304.464 2.088.72.788.269 1.551.606 2.28 1.008a4.676 4.676 0 011.656 1.524c.443.733.66 1.58.624 2.436a4.7 4.7 0 01-.672 2.448 4.833 4.833 0 01-1.991 1.804 6.979 6.979 0 01-3.241.688zm9.912-.288l6.144-16.8h3.456l6.144 16.8h-3.264l-1.344-3.888h-6.552l-1.368 3.888h-3.216zm5.424-6.288h4.872l-2.448-6.984-2.424 6.984z" fill="#545748"/>
</svg>
