<svg width="144" height="41" fill="none" xmlns="http://www.w3.org/2000/svg">
  <path d="M34.265 13.003h-.053a8.388 8.388 0 00-6.464 2.99 8.387 8.387 0 00-6.464-2.992h-.04A8.146 8.146 0 0013 21a8.147 8.147 0 008.284 8c.636 0 1.27-.07 1.89-.21.05-.01.1-.028.148-.04.246-.06.49-.126.726-.207.143-.05.28-.111.42-.168.14-.057.277-.1.411-.168.227-.106.448-.227.665-.353.04-.023.083-.043.122-.066A8.355 8.355 0 0027.75 26a8.388 8.388 0 002.084 1.788c.04.023.082.043.122.066.217.126.438.247.665.353.134.063.274.113.412.168.138.055.276.119.419.168.237.08.48.147.727.207.049.012.1.03.147.04.62.14 1.254.21 1.89.21a8.147 8.147 0 008.284-8 8.144 8.144 0 00-8.235-7.998zm-.053 13a5.375 5.375 0 01-4.158-1.915l-2.308-2.773-2.307 2.773a5.374 5.374 0 01-4.159 1.914 5.154 5.154 0 01-5.284-5 5.153 5.153 0 015.284-5 5.375 5.375 0 014.159 1.913l2.307 2.773 2.308-2.773A5.373 5.373 0 0134.212 16a5.153 5.153 0 015.284 5 5.154 5.154 0 01-5.284 5v.002zM51.94 33.03V14.074h3.267v2.268a5.078 5.078 0 011.876-1.822 5.288 5.288 0 012.74-.742 5.83 5.83 0 014.5 1.93 7.478 7.478 0 011.77 5.252v.216a7.746 7.746 0 01-1.748 5.32 5.754 5.754 0 01-4.521 1.97 5.6 5.6 0 01-2.808-.69 4.51 4.51 0 01-1.81-1.8v7.052H51.94zm7.074-7.156a3.35 3.35 0 002.767-1.188 5.4 5.4 0 00.959-3.456v-.216a5.155 5.155 0 00-1.04-3.469 3.418 3.418 0 00-2.715-1.2 3.59 3.59 0 00-2.822 1.2 5.066 5.066 0 00-1.067 3.47v.215a5.09 5.09 0 001.043 3.466 3.64 3.64 0 002.874 1.178zm10.017 2.322v-14.12h3.264v2.645a4.815 4.815 0 014.59-2.862v3.051a5.673 5.673 0 00-3.443.918 3.601 3.601 0 00-1.146 3.024v7.344H69.03zm10.8 0v-14.12h3.264v14.12h-3.264zm2.97-16.983a1.923 1.923 0 01-1.377.54 1.921 1.921 0 01-1.378-.54 1.754 1.754 0 01-.567-1.323 1.787 1.787 0 01.567-1.35A1.922 1.922 0 0181.423 8a1.922 1.922 0 011.377.54 1.79 1.79 0 01.568 1.35 1.755 1.755 0 01-.567 1.323zm9.094 17.253a6.72 6.72 0 01-4.261-1.215 4.439 4.439 0 01-1.647-3.455h3.078c.037.645.317 1.253.782 1.7a3.022 3.022 0 002.026.567c1.691 0 2.537-.603 2.537-1.809a1.374 1.374 0 00-.688-1.258 6.992 6.992 0 00-2.335-.688 8.642 8.642 0 01-3.97-1.39 3.539 3.539 0 01-1.133-2.9 3.618 3.618 0 011.566-3.122 6.235 6.235 0 013.726-1.12c3.384 0 5.229 1.422 5.535 4.266h-3.025a2.418 2.418 0 00-.8-1.43 2.724 2.724 0 00-1.715-.46 2.635 2.635 0 00-1.647.46 1.46 1.46 0 00-.594 1.214 1.241 1.241 0 00.621 1.134 7.357 7.357 0 002.296.675 9.86 9.86 0 014.022 1.323 3.4 3.4 0 011.27 3 4.021 4.021 0 01-1.468 3.338 6.539 6.539 0 01-4.175 1.17zm13.315-.027a4.328 4.328 0 01-3.173-1.08 4.182 4.182 0 01-1.093-3.1v-7.722h-1.89V14.08h1.89v-3.1h3.267v3.1h3.1v2.457h-3.1v7.425c0 1.206.54 1.81 1.62 1.81a4.145 4.145 0 001.593-.27v2.586a6.348 6.348 0 01-2.214.351zm5.238-.243v-14.12h3.267v14.12h-3.267zm2.97-16.983a1.918 1.918 0 01-1.377.54 1.92 1.92 0 01-1.377-.54 1.767 1.767 0 01-.567-1.323 1.802 1.802 0 01.567-1.35 1.934 1.934 0 011.377-.54 1.924 1.924 0 011.377.54 1.786 1.786 0 01.567 1.35 1.756 1.756 0 01-.567 1.323zm4.266 16.983v-14.12h3.267v2.24a4.354 4.354 0 011.728-1.82 5.398 5.398 0 012.835-.715 4.645 4.645 0 013.537 1.363 5.86 5.86 0 011.3 4.172v8.88h-3.271V19.61a3.452 3.452 0 00-.675-2.349 2.718 2.718 0 00-2.133-.756 3.346 3.346 0 00-2.389.877 3.28 3.28 0 00-.932 2.5v8.314h-3.267z" fill="#545748"/>
</svg>
