<svg width="144" height="41" fill="none" xmlns="http://www.w3.org/2000/svg">
  <path d="M47.553 6.043a3.266 3.266 0 01-.151 2.863 4.564 4.564 0 01-2.5 2.02 8.02 8.02 0 01-4.814.294 9.261 9.261 0 01-4.273-2.226l.4-.435a6.938 6.938 0 002.269.877c.963.173 1.95.16 2.908-.038l-.126-.942a4.482 4.482 0 01.353-2.704 3.257 3.257 0 011.808-1.614 2.983 2.983 0 012.476.063 3.266 3.266 0 011.65 1.842zM30.92 31.232a11.223 11.223 0 01-3.175-.416 14.806 14.806 0 01-2.6-1.028l.037-4.294h.363l1.224 2.165a6.494 6.494 0 001.751 2.147 4 4 0 002.437.707 4.64 4.64 0 002.796-.775 2.441 2.441 0 001.065-2.076 2.639 2.639 0 00-.758-1.956 6.894 6.894 0 00-2.812-1.372l-1.52-.464a7.453 7.453 0 01-3.464-2.021 4.772 4.772 0 01-1.262-3.357 5.2 5.2 0 011.876-4.042 7.862 7.862 0 015.378-1.66c.893-.005 1.783.098 2.652.307.835.207 1.641.516 2.4.92l-.217 3.901h-.362l-1.263-2.238a5.398 5.398 0 00-1.354-1.678 3.39 3.39 0 00-2.002-.487 4.24 4.24 0 00-2.31.686 2.176 2.176 0 00-1.083 1.948 2.347 2.347 0 00.92 1.946 9.387 9.387 0 002.722 1.335l1.624.47a7.427 7.427 0 013.719 2.183 5.156 5.156 0 011.118 3.338 5.051 5.051 0 01-2.075 4.223 9.407 9.407 0 01-5.825 1.588zm9.456-.537v-.363l.505-.144c.4-.089.752-.32.993-.65.196-.352.29-.752.272-1.154V17.088a1.956 1.956 0 00-.272-1.136 1.534 1.534 0 00-.993-.524l-.505-.108v-.363l6.604-2.132.363.363-.108 5.125v10.105c-.019.402.076.802.273 1.154.23.324.57.555.956.65l.363.107v.363l-8.451.003zm17.9-6.248a9.716 9.716 0 01-4.223-.828v1.225a1.236 1.236 0 001.12 1.335l6.785 1.263c1.045.193 2.072.477 3.068.848a5.38 5.38 0 012.201 1.48c.588.74.883 1.671.83 2.616a5.235 5.235 0 01-1.155 3.265 7.994 7.994 0 01-3.41 2.419c-1.795.663-3.7.976-5.612.92a14.25 14.25 0 01-4.584-.595 4.967 4.967 0 01-2.4-1.532 3.255 3.255 0 01-.704-1.985 4.676 4.676 0 01.884-2.616 7.022 7.022 0 012.184-2.111 3.54 3.54 0 01-1.624-1.119 2.45 2.45 0 01-.505-1.48c-.001-.477.13-.945.379-1.353.273-.45.58-.88.92-1.282l1.19-1.516a5.104 5.104 0 01-2.63-4.764 5.344 5.344 0 011.859-4.223c1.239-1.082 3.062-1.624 5.468-1.624a10.878 10.878 0 013.23.433c.84.243 1.62.662 2.289 1.227a9.899 9.899 0 002.183-.595 6.547 6.547 0 001.859-1.136l.505.363v1.84H64.3a5.346 5.346 0 011.299 3.72 5.317 5.317 0 01-1.855 4.161c-1.24 1.096-3.063 1.644-5.47 1.644zm-.036-.726a2.247 2.247 0 002.111-1.19 8.626 8.626 0 00.668-3.97 8.268 8.268 0 00-.668-3.916 2.207 2.207 0 00-2.039-1.136 2.206 2.206 0 00-2.02 1.173 8.31 8.31 0 00-.687 3.952 8.807 8.807 0 00.635 3.934 2.122 2.122 0 002 1.157v-.004zm-5.38 10a3.916 3.916 0 001.317 3.213 6.531 6.531 0 004.172 1.083 8.435 8.435 0 004.51-.973 3.084 3.084 0 001.52-2.744 2.005 2.005 0 00-.74-1.624 5.624 5.624 0 00-2.512-.939l-6.532-1.224-.578-.144a6.76 6.76 0 00-.83 1.642 5.17 5.17 0 00-.327 1.71zm16.712-3.026v-.363l.505-.144a1.52 1.52 0 00.956-.613c.199-.353.304-.75.307-1.155v-11.3a2.15 2.15 0 00-.248-1.172 1.451 1.451 0 00-.974-.523l-.544-.145v-.362l6.168-2.094.363.363.288 2.454a11.708 11.708 0 012.722-2.021 6.621 6.621 0 013.194-.83 4.903 4.903 0 012.778.703 4.306 4.306 0 011.588 2.184 11.66 11.66 0 013.05-2.111 7.453 7.453 0 013.194-.776 5.099 5.099 0 013.772 1.228 5.327 5.327 0 011.209 3.861v10.574a1.652 1.652 0 001.299 1.768l.4.111v.363h-8.336v-.363l.362-.108c.387-.095.726-.325.957-.65.196-.351.29-.751.272-1.154V17.373a3.005 3.005 0 00-.544-2.075 2.323 2.323 0 00-1.733-.56 4.244 4.244 0 00-1.823.415 8.495 8.495 0 00-1.858 1.246c.125.41.204.834.235 1.263.036.457.054.938.054 1.443v9.343a1.696 1.696 0 001.3 1.768l.323.116v.363h-8.373v-.363l.506-.144c.382-.095.72-.319.956-.635.198-.345.293-.74.272-1.137V17.41a3.176 3.176 0 00-.523-2.057 2.242 2.242 0 00-1.787-.613 3.683 3.683 0 00-1.66.415 8.278 8.278 0 00-1.732 1.21v12.09a1.648 1.648 0 001.263 1.767l.323.111v.363h-8.481zm36.486.544a5.302 5.302 0 01-3.518-1.191 4.22 4.22 0 01-1.423-3.435 4.054 4.054 0 011.733-3.122 12.355 12.355 0 015.45-2.147c.385-.072.818-.15 1.299-.235.481-.084.986-.175 1.516-.272v-2.85a7.172 7.172 0 00-.595-3.448 2.015 2.015 0 00-1.863-.988 1.752 1.752 0 00-1.371.56 3.45 3.45 0 00-.65 1.93l-.072.398a3.457 3.457 0 01-.758 2.273 2.238 2.238 0 01-1.696.726 2.177 2.177 0 01-1.552-.578 2.035 2.035 0 01-.613-1.552 3.354 3.354 0 011.028-2.49 6.424 6.424 0 012.722-1.516 12.845 12.845 0 013.681-.505 7.179 7.179 0 014.962 1.57c1.168 1.047 1.751 2.75 1.751 5.107v7.976c0 1.083.505 1.624 1.516 1.624h.794l.324.288a5.318 5.318 0 01-1.494 1.333 4.62 4.62 0 01-2.292.469 3.895 3.895 0 01-2.508-.741 3.46 3.46 0 01-1.209-1.967 15.086 15.086 0 01-2.22 1.967c-.871.573-1.9.856-2.942.809v.007zm2.202-2.201a2.79 2.79 0 001.353-.343 9.64 9.64 0 001.498-1.065v-6.063l-.726.144c-.242.048-.518.096-.83.144a5.536 5.536 0 00-2.652 1.461 3.815 3.815 0 00-.989 2.753c-.061.8.184 1.593.686 2.22a2.175 2.175 0 001.66.741v.008z" fill="#545748"/>
</svg>
