<svg fill="none" height="18" viewBox="0 0 18 18" width="18" xmlns="http://www.w3.org/2000/svg"><g fill="#545748"><path d="m15.8095 5.25006c-.27-.4575-.75-.7425-1.275-.7575h-9.60004l-.435-1.695-.00075-.0075c-.0975-.3375-.405-.57-.75-.555h-1.5-.0075c-.42 0-.75.33-.75.75 0 .4125.33.7425.75.7425h.93l2.07 7.69504c.09.33.3975.5625.75.5475h6.74999-.0075c.2775-.0075.54-.165.6675-.4125l2.46-4.92004v-.0075c.21-.4575.1875-.99-.075-1.4175zm-3.525 5.25004h-5.71504l-1.2225-4.50004h9.18754z"/><path d="m5.625 13.5c-.29837 0-.58452.1185-.7955.3295-.21097.211-.3295.4971-.3295.7955s.11853.5845.3295.7955c.21098.211.49713.3295.7955.3295s.58452-.1185.7955-.3295c.21097-.211.3295-.4971.3295-.7955s-.11853-.5845-.3295-.7955c-.21098-.211-.49713-.3295-.7955-.3295z"/><path d="m13.125 13.5c-.2984 0-.5845.1185-.7955.3295s-.3295.4971-.3295.7955.1185.5845.3295.7955.4971.3295.7955.3295.5845-.1185.7955-.3295.3295-.4971.3295-.7955-.1185-.5845-.3295-.7955-.4971-.3295-.7955-.3295z"/></g></svg>